<svg xmlns="http://www.w3.org/2000/svg" xmlns:xlink="http://www.w3.org/1999/xlink" viewBox="0 0 988.9 771.4"><defs><linearGradient id="a" x1="407.8" x2="407.8" y1="317.8" y2="394.5" gradientUnits="userSpaceOnUse"><stop offset="0" stop-color="#f5f5f5"/><stop offset="1" stop-color="#d1d1d1"/></linearGradient><linearGradient id="f" x1="400.6" x2="400.6" y1="378.1" y2="420.8" xlink:href="#a"/><linearGradient id="g" x1="273.1" x2="273.1" y1="343.1" y2="397.3" xlink:href="#a"/><linearGradient id="h" x1="243.7" x2="243.7" y1="444.3" y2="531.9" xlink:href="#a"/><linearGradient id="i" x1="241.1" x2="241.1" y1="321.6" y2="382.2" xlink:href="#a"/><linearGradient id="b" x1="242.3" x2="281.4" y1="362.3" y2="362.3" gradientUnits="userSpaceOnUse"><stop offset="0" stop-color="#ff1d4b"/><stop offset="1" stop-color="#b93dfe"/></linearGradient><linearGradient id="j" x1="223.8" x2="263.6" y1="422.6" y2="422.6" xlink:href="#a"/><linearGradient id="k" x1="281.4" x2="339.7" y1="452.8" y2="452.8" xlink:href="#b"/><linearGradient id="l" x1="284.9" x2="284.9" y1="457.2" y2="488.1" xlink:href="#a"/><linearGradient id="m" x1="275.1" x2="294.6" y1="506.3" y2="506.3" xlink:href="#a"/><linearGradient id="n" x1="323.7" x2="323.7" y1="493.3" y2="438.5" xlink:href="#b"/><linearGradient id="o" x1="414.3" x2="414.3" y1="245.4" y2="190.9" xlink:href="#b"/><linearGradient id="p" x1="369.5" x2="410.4" y1="54.4" y2="54.4" xlink:href="#a"/><linearGradient id="q" x1="350.7" x2="392.8" y1="170.6" y2="170.6" xlink:href="#a"/><linearGradient id="r" x1="375.7" x2="394.7" y1="254.7" y2="254.7" xlink:href="#a"/><linearGradient id="s" x1="357.1" x2="357.1" y1="248.2" y2="325" xlink:href="#a"/><linearGradient id="t" x1="323.7" x2="419.4" y1="312.4" y2="312.4" xlink:href="#b"/><linearGradient id="u" x1="449.7" x2="493.1" y1="347.3" y2="347.3" xlink:href="#a"/><linearGradient id="v" x1="510.9" x2="510.9" y1="342.4" y2="264.4" xlink:href="#b"/><linearGradient id="w" x1="499" x2="499" y1="559.6" y2="489.8" xlink:href="#a"/><linearGradient id="x" x1="456.3" x2="456.3" y1="412.8" y2="347.1" xlink:href="#a"/><linearGradient id="y" x1="499" x2="536.1" y1="356.1" y2="356.1" xlink:href="#a"/><linearGradient id="z" x1="454.9" x2="454.9" y1="351.5" y2="332.4" xlink:href="#a"/><linearGradient id="A" x1="455.8" x2="455.8" y1="145.3" y2="95.5" xlink:href="#a"/><linearGradient id="B" x1="452.9" x2="452.9" y1="171.8" y2="230.9" xlink:href="#a"/><linearGradient id="C" x1="288.1" x2="288.1" y1="210.4" y2="269.6" xlink:href="#a"/><linearGradient id="D" x1="480.3" x2="561.8" y1="200.9" y2="200.9" xlink:href="#a"/><linearGradient id="E" x1="283.5" x2="283.5" y1="169.2" y2="235.2" xlink:href="#a"/><linearGradient id="F" x1="293.1" x2="293.1" y1="347.8" y2="296.7" xlink:href="#a"/><linearGradient id="c" x1="104.9" x2="145.6" y1="493.2" y2="493.2" gradientUnits="userSpaceOnUse"><stop offset="0" stop-color="#f5f5f5"/><stop offset="1" stop-color="#e4e4e4"/></linearGradient><linearGradient id="G" x1="201.3" x2="243.8" y1="405.9" y2="662.8" xlink:href="#c"/><linearGradient id="H" x1="104.6" x2="18.2" y1="307.6" y2="626.9" xlink:href="#c"/><linearGradient id="I" x1="75.9" x2="208.4" y1="446.6" y2="446.6" xlink:href="#c"/><linearGradient id="J" x1="52.4" x2="141" y1="509.9" y2="509.9" xlink:href="#c"/><linearGradient id="K" x1="190.9" x2="83.2" y1="189.4" y2="596.5" xlink:href="#c"/><linearGradient id="d" x1="190.9" x2="123.4" y1="99.3" y2="266.6" gradientUnits="userSpaceOnUse"><stop offset="0" stop-color="#1c48c0"/><stop offset="1" stop-color="#ba3dfe"/></linearGradient><linearGradient id="L" x1="225.3" x2="157.8" y1="113.2" y2="280.5" xlink:href="#d"/><linearGradient id="N" x1="600.8" x2="600.8" y1="534.7" y2="448.8" xlink:href="#d"/><linearGradient id="O" x1="592.9" x2="592.9" y1="534.7" y2="448.8" xlink:href="#d"/><linearGradient id="e" x1="177" x2="177" y1="-483.2" y2="-488.1" gradientTransform="translate(410.8 922.06)" gradientUnits="userSpaceOnUse"><stop offset="0" stop-color="#ff8538"/><stop offset="1" stop-color="#f5f5f5"/></linearGradient><linearGradient id="P" x1="186.1" x2="186.1" y1="-483.2" y2="-488.1" gradientTransform="translate(410.71 920.74)" xlink:href="#e"/><linearGradient id="Q" x1="747.9" x2="747.9" y1="399.1" y2="529" xlink:href="#b"/><clipPath id="M"><path fill="none" d="M154.9 448.1l7.9-25.5-50.9-3.7 11.9 35.2 31.1-6z"/></clipPath></defs><g opacity=".1"><path d="M585 575l-10.2 3.8a3.3 3.3 0 00.6 6.3l25.6 4.3 11.5-5s-30.2 13.7-2.6 16.6c37.3 3.9 58.9-11.6 58.9-11.6s44.7 2.4 55.8-7.6c8.8-7.8-1.8-9.8-27.1-12.4 0 0-29.7-17.6-54.8-11.7S585 575 585 575z"/><path d="M464.5 651.7c-18.6-1.4-68.6 2.7-68.6 2.7-18.1 2.1-22.4-5.4-22.4-5.4s3.3 1.8-12.3 0-11.8-10.6-11.8-10.6l7-4.8 12.8-29.3-123-16.2 117.1-25.3H423l64.4 3.9 17.6 10.5h87.3l60.5 15.1-21.2 20.2-90.6-2.6-60.6 20s110.8 3.2 97.3 12.8-53.1 13.4-113 9z"/><path d="M5.3 625.7l104.3 8.8-5.2 7 278.6-1.7 8.5-32.6-237.6-3.7-14.6.6 6.3.8 51.6 7.2 44.2 4.9 118.5 13.7-338.4-7.3-16.2 2.3zm692.5 118.8c-14.8-1.5-55.8-8.6-17.2-9.4s180.2 9.9 180.2 9.9l-13-4.6s10.2-6.6 35.3-5.8 62.7 8.8 85.7 17c24.5 8.6 48 24.7-67 18.2s-186.3-23.4-204-25.3z"/></g><path fill="#dadada" d="M255.7 108.3l-6.5-43.5 17.7-5.5 7.5 45.5-18.7 3.5z"/><path fill="silver" d="M266.9 59.3l37.8 7.9 6.1 38.7-36.4-1.1-7.5-45.5z"/><path fill="#1e1e1e" d="M255.7 108.3l39 .9 16.1-3.3-36.4-1.1-18.7 3.5z"/><path fill="#ba3dfe" d="M536.5 156.3v-6.1l-36.4-49 2.5 46.8 33.9 8.3z"/><path fill="#dadada" d="M392.8 373.2l-38 1v50.9h38v-51.9z"/><path fill="#00d5ff" d="M392.8 305.7h-38v68.5l38-1v-67.5z"/><path fill="#ff8c19" d="M354.8 425.1v139.5l38 4.2V425.1h-38z"/><path fill="#a4a4a4" d="M392.8 373.2h30.1v51.9h-30.1z"/><path fill="url(#a)" d="M392.8 305.7h30.1v67.5h-30.1z"/><path fill="#98113d" d="M422.9 425.1h-30.1v58l30.1-2.8v-55.2z"/><path fill="#8c8c8c" d="M376.1 504.8v13.5l16.7-2.2v-13l-16.7 1.7z"/><path fill="#a4a4a4" d="M392.8 503.1v-20l-16.7 1.5v20.2l16.7-1.7z"/><path fill="#dadada" d="M376.1 484.6l-37.5-2.1V503l37.5 1.8v-20.2z"/><path fill="#d0d0d0" d="M338.6 503v14.1l37.5 1.2v-13.5l-37.5-1.8z"/><path fill="#e57917" d="M392.8 568.8l30.1-6v-50.6l-30.1 3.9v52.7z"/><path fill="#98113d" d="M422.9 500v-19.7l-30.1 2.8v20l30.1-3.1z"/><path fill="#646464" d="M392.8 503.1v13l30.1-3.9V500l-30.1 3.1z"/><path fill="#00d5ff" d="M338.6 482.5l15.5-50.1h5.3l16.7 45.9v6.3l-37.5-2.1z"/><path fill="#1e1e1e" d="M376.1 478.3l20-1.3v5.8l-20 1.8v-6.3z"/><path fill="#004ab5" d="M359.4 432.4h18.2l18.5 44.6-20 1.3-16.7-45.9z"/><path fill="#ff2b50" d="M407 439.4l-19.7-.6v24.5l19.7.5v-24.4z"/><path fill="#ffc402" d="M387.3 438.8l4.2-.2v.3l-4.2-.1z"/><path fill="#ff8c19" d="M387.3 463.3v28.2l19.7 1v-28.7l-19.7-.5z"/><path fill="#e57917" d="M407 492.5l38.7-5.8v-26.4l-38.7 3.5v28.7z"/><path fill="#98113d" d="M407 439.4v24.4l38.7-3.5v-24.1l-38.7 3.2z"/><path fill="#004ab5" d="M409.7 418.3l36-2.8v-48.6H425l-15.3 45.3v6.1z"/><path fill="#646464" d="M409.7 418.3v20.8l-2.7.3 38.7-3.2v-20.7l-36 2.8z"/><path fill="silver" d="M409.7 418.3h-18.2v20.6l15.5.5 2.7-.3v-20.8z"/><path fill="#00d5ff" d="M425 366.9h-17.2l-16.3 45.3h18.2l15.3-45.3z"/><path fill="url(#f)" d="M391.5 412.2h18.2v6.1h-18.2z"/><path fill="none" stroke="#004000" stroke-linejoin="round" d="M409.7 418.3h0z"/><path fill="#646464" d="M445.7 486.7v13.1l-30.5 5v-13.5l30.5-4.6z"/><path fill="silver" d="M395.1 491.9v11.6l20.1 1.3v-13.5l-8.2 1.2-11.9-.6z"/><path fill="#dadada" d="M283.5 373.2h19.1v-31l-19.1.6v30.4z"/><path fill="#ba3dfe" d="M283.5 342.8v-27.3l-39.9 3.4v54.3h39.9v-30.4z"/><path fill="#a4a4a4" d="M302.6 342.2v31h38.9v-29.8l-38.9-1.2z"/><path fill="url(#g)" d="M283.5 373.2h-39.9v13.7h59v-13.7h-19.1z"/><path fill="#004ab5" d="M302.6 373.2h38.9v13.7h-38.9z"/><path fill="#98113d" d="M281.4 447.4v-50.2h-17.8v50.9l17.8-.7z"/><path fill="#dadada" d="M263.6 448.1l-39.8-1v26.7l39.8 2.9v-28.6z"/><path fill="#a4a4a4" d="M263.6 476.7l17.8-1.7v-27.6l-17.8.7v28.6z"/><path fill="#ffc402" d="M263.6 476.7l-39.8-2.9v31l39.8 3.2v-31.3z"/><path fill="#ff8c19" d="M263.6 476.7V508l17.8-2.6V475l-17.8 1.7z"/><path fill="#004ab5" d="M263.6 523.1l17.8-3.1v-14.6l-17.8 2.6v15.1z"/><path fill="url(#h)" d="M223.8 504.8v14.1l39.8 4.2V508l-39.8-3.2z"/><path fill="#ff8c19" d="M221.3 386.9h39.6v10.3h-39.6z"/><path fill="#e57917" d="M260.9 386.9h20.5v10.3h-20.5z"/><path fill="url(#i)" d="M260.9 386.9l-18.6-49.2h-4.5l-16.5 49.2h39.6z"/><path fill="url(#b)" d="M263.6 339.2l-21.3-1.5 18.6 49.2h20.5l-17.8-47.7z"/><path fill="#1e1e1e" d="M247 441.4a9.5 9.5 0 00-5.2-1.6c-4.3 0-8 3-10 7.5l10.3.2a13.4 13.4 0 014.9-6z"/><path fill="url(#j)" d="M223.8 397.2V447l8 .2c2-4.5 5.7-7.5 10-7.5a9.5 9.5 0 015.2 1.6 13.5 13.5 0 015 6.4l6 .2h5.6v-50.8z"/><path fill="#004ab5" d="M242 447.6l10 .2a13.5 13.5 0 00-5-6.4 13.4 13.4 0 00-5 6.2z"/><path fill="#a4a4a4" d="M281.4 386.9v60.5l40.7-2.5v-58h-40.7z"/><path fill="url(#k)" d="M322.1 444.9l17.6-1.2v13.2l-58.3 5v-14.5l40.7-2.5z"/><path fill="#00d5ff" d="M339.7 443.7h-17.6v1.2l17.6-1.2z"/><path fill="#dadada" d="M294.6 522.4l-19.5-1.3-11.5 2-19.9-2.1v9.7l60.8 5.4V521l-9.9 1.4z"/><path fill="#a4a4a4" d="M304.5 521v15.1l39.7-7.3v-13.5l-39.7 5.7z"/><path fill="#d0d0d0" d="M246.2 530.9v57.2l37.3 4.9v-58.7l-37.3-3.4z"/><path fill="#a4a4a4" d="M304.5 536.1l-21-1.8V593l40.2-8.2v-52.2l-19.2 3.5z"/><path fill="url(#l)" d="M294.6 463.8l-19.5-1.4v27.7l19.5 1.4v-27.7z"/><path fill="url(#m)" d="M275.1 490.1v31l19.5 1.3v-30.9l-19.5-1.4z"/><path fill="#00d5ff" d="M352.8 458.4l-13.1-1.5-64.6 5.5 19.5 1.4 58.2-5.4z"/><path fill="#98113d" d="M294.6 522.4l58.2-8.4v-30.7l-58.2 8.2v30.9z"/><path fill="url(#n)" d="M294.6 463.8v27.7l58.2-8.2v-24.9l-58.2 5.4z"/><path fill="url(#o)" d="M426.4 246.3V178h-24.2v76.3l24.2-8z"/><path fill="#050" d="M542.3 283.1h-17.5l-31.7-5 2.8-.2 46.4 5.2z"/><path fill="#ff8c19" d="M410.4 186.2l31.9-4.6v-70.5l-31.9-6.7v81.8z"/><path fill="#a73de5" d="M410.4 104.4l31.9 6.7V81.3l-31.9-7.2v30.3z"/><path fill="#ff2b50" d="M410.4 17.3v9.4l31.9 12.4v-8.4l-31.9-13.4z"/><path fill="#1e1e1e" d="M427.1 41.5a6.8 6.8 0 00-5 2.5 14.3 14.3 0 013.3 9.5 14.3 14.3 0 01-3.3 9.6 6.8 6.8 0 005 2.4c4.6 0 8.3-5.4 8.3-12s-3.7-12-8.3-12z"/><path fill="#ff8c19" d="M410.4 26.7v47.4l31.9 7.2V39.1zm16.7 38.8a6.8 6.8 0 01-5-2.4 14.3 14.3 0 01-3.3-9.6 14.3 14.3 0 013.3-9.5 6.8 6.8 0 015-2.4c4.6 0 8.3 5.3 8.3 12s-3.7 11.9-8.3 11.9z"/><path fill="#fe9643" d="M410.4 17.3l-40.9 10.3V37l40.9-10.3v-9.4z"/><path fill="#ba3dfe" d="M410.4 74.1l-40.9 8.1v30.4l40.9-8.2V74.1z"/><path fill="#ffc600" d="M369.5 112.6V193l40.9-6.8v-81.8l-40.9 8.2z"/><path fill="#1e1e1e" d="M390 53.5c0-4.4 1.7-8.3 4.1-10.4a6.4 6.4 0 00-4.1-1.6c-4.6 0-8.3 5.4-8.3 12s3.7 12 8.3 12a6.4 6.4 0 004.1-1.6c-2.5-2.1-4.1-6-4.1-10.4z"/><path fill="url(#p)" d="M369.5 37v45.2l41-8V26.6zM390 65.5c-4.6 0-8.3-5.4-8.3-12s3.7-12 8.3-12a6.4 6.4 0 014.1 1.6c2.5 2 4.2 6 4.2 10.4s-1.7 8.2-4.2 10.3a6.4 6.4 0 01-4.1 1.7z"/><path fill="#ffc600" d="M410.4 17.3L370.2 0v27.4l40.2-10.1z"/><path fill="#ff8c19" d="M370.2 0l28 10.3 44.1 20.4-31.9-13.4L370.2 0z"/><path fill="url(#q)" d="M350.7 195.9v-43.4l42.1-7.2v43.8l-42.1 6.8z"/><path fill="#ba3dfe" d="M392.8 145.3l18.4 4.8V246l-23.2-4.2 4.8-10.4v-86.1z"/><path fill="#ffc600" d="M392.8 145.3l-22.5-50.1-3.2.7-16.4 56.6 42.1-7.2z"/><path fill="#ff8c19" d="M370.3 95.2l18.5 4.9 22.4 50-18.4-4.8-22.5-50.1z"/><path fill="#646464" d="M426.4 268.6v-22.3l-31.7-5.3v24.4l31.7 3.2z"/><path fill="url(#r)" d="M394.7 241l-19 2.7v24.7l19-3V241z"/><path fill="#ff8c19" d="M394.7 292.6l31.7 2.8v-26.8l-31.7-3.2v27.2z"/><path fill="#ff2b50" d="M375.7 294.6v14.1l19-2.4v-13.7l-19 2z"/><path fill="#ffc402" d="M394.7 265.4l-19 3v26.2l19-2v-27.2z"/><path fill="#98113d" d="M394.7 292.6v13.7l31.7 2.4v-13.3l-31.7-2.8z"/><path fill="#1e1e1e" d="M342.8 277.9l33 2.6s6.2-55.8 54.1-65.7l-7.8-17.8-68.5 14.3-17.2 61.5z"/><path fill="#ff2b50" d="M429.9 214.8v-31.4L336.4 198l-.9 80h7.3s4.8-41.6 36.4-61 50.7-2 50.7-2z"/><path fill="#1e1e1e" d="M375.7 308.7l31.6 1.7 19.1-1.7-31.7-2.4-19 2.4z"/><path fill="#ffc600" d="M338.5 305.7l37.2 3v-14.1l-37.2-3.2v14.3z"/><path fill="url(#s)" d="M342.8 277.9h-4.3v13.5l37.2 3.2v-14.1l-32.9-2.6z"/><path fill="url(#t)" d="M407 321.6v-11.2l-104.4-7.3v10.7l104.4 7.8z"/><path fill="#1e1e1e" d="M407 321.6l-52.2.8-52.2-3.7v-4.9l104.4 7.8z"/><path fill="url(#u)" d="M449.7 281.9v130.3l20.3 4.3h23.1V278.1l-43.4 3.8z"/><path fill="url(#v)" d="M528.7 282.1l-35.6-4v64.1h35.6v-60.1z"/><path fill="#1e1e1e" d="M493.1 342.2h35.6v74.3h-35.6z"/><path fill="url(#w)" d="M523.1 476.3l-48.2-2.1v61.1l48.2 4.2v-63.2z"/><path fill="#d0d0d0" d="M474.9 535.3v59.9l48.2 5.8v-61.5l-48.2-4.2z"/><path fill="#646464" d="M523.1 476.3v63.2l31.4-7.1v-61l-31.4 4.9z"/><path fill="#a4a4a4" d="M523.1 601l31.4-9.3v-59.3l-31.4 7.1V601z"/><path fill="#00eb00" d="M499 475.4l23.8.9-23.8-1v.1z"/><path fill="#00d5ff" d="M499 441v34.3l23.8 1v-34.9L499 441z"/><path fill="#ffc402" d="M498.6 413v28l24.2.4v-28.1l-24.2-.3z"/><path fill="#ff8c19" d="M522.8 413.3v28.1l31.7-2.6 1.4-.1-.1-26.5-33 1.1zm-24.2-.3l-46.5-.8v61.1l46.9 2.1V441l23.8.4-24.2-.4v-28z"/><path fill="#004ab5" d="M522.8 441.4v34.9h.3l31.4-4.9v-32.6l-31.7 2.6z"/><path fill="#a4a4a4" d="M479.3 346.1v69l18.1-2.1v-66.9h-18.1z"/><path fill="url(#x)" d="M433.3 347.4v67.5l46 .2v-69l-46 1.3z"/><path fill="#646464" d="M522.8 389.4v23.9l32.6-1.1v-23.7l-32.6.9z"/><path fill="silver" d="M500.5 389.4V413l22.3.3v-23.9h-22.3z"/><path fill="#ba3dfe" d="M499 382v7.4h23.8l2.4-.1v-7.6l-26.2.3z"/><path fill="#9a35db" d="M556.4 381.1l-31.2.6v7.6l31.2-.8v-7.4z"/><path fill="#ba3dfe" d="M540.3 330.2l-4.2.1-10.9 51.4 31.2-.6-16.1-50.9z"/><path fill="url(#y)" d="M512.1 330.5L499 382l26.2-.3 10.9-51.4-24 .2z"/><path fill="url(#z)" d="M477.8 346.1l-45.7 1.3v-9l45.7-1.4v9.1z"/><path fill="#646464" d="M496.8 346.1V337h-19v9.1h19z"/><path fill="#ffc600" d="M432.1 338.4l19-53.2 3.8-.4 24.4 52.2h-1.5l-45.7 1.4z"/><path fill="#ff8c19" d="M454.9 284.8l18.7 1.8 23.2 50.4h-17.5l-24.4-52.2z"/><path fill="#e57917" d="M536.5 178v-21.7l-33.9-8.3v25.8l33.9 4.2z"/><path fill="#ff8c19" d="M502.6 148l-93.7 16v22.4l93.7-12.6V148z"/><path fill="#ffc402" d="M493.1 278.1L448 282v-13.2l47.9-5.3v14.4l-2.8.2z"/><path fill="#ff8c19" d="M542.3 270.8l-46.4-7.3v14.4l46.4 5.2v-12.3z"/><path fill="url(#A)" d="M500.1 101.2l-71.6 13.2-19.6 49.6 93.7-16-2.5-46.8z"/><path d="M480.3 134.4l5.1-16.9 15.7 3.1 1.5 27.4v22.6l-13.9 2.6-8.4-38.8z" opacity=".3"/><path fill="#1e1e1e" d="M475.9 260.6l-46 5.7 18.1 2.5 47.9-5.3-20-2.9z"/><path fill="silver" d="M429.9 250.1v16.2l46-5.7v-16.2l-46 5.7z"/><path fill="url(#B)" d="M475.9 161.4l-46 7.3v81.4l46-5.7v-83z"/><path fill="url(#C)" d="M311.1 200l-45.9 7.3v81.4l45.9-5.7v-83z"/><path fill="#1e1e1e" d="M542.3 225.9l-66.4-14.6v18l53.6 11.7v27.8l12.8 2v-44.9z"/><path fill="#646464" d="M494.9 233.5v14.6l-19-3.7v16.2l53.6 8.2V241l-34.6-7.5z"/><path fill="#ba3dfe" d="M494.9 233.5l-19-4.2v15.1l19 3.7v-14.6z"/><path fill="#ba3dfe" d="M475.9 236.6v-75.2l17.2 3.8v71.4h-17.2z"/><path fill="url(#D)" d="M561.8 233.5v-53.4s-8-8.8-28.6-11-53 .6-53 .6v59.7z"/><path d="M561.8 180.1s-8-8.8-28.6-11l-6.6-.5v63.1l35.1 1.8z" opacity=".3"/><path fill="#1e1e1e" d="M480.3 229.3s35.8-5 63.6-1 14.8 7.1 14.8 7.1l-43.3 4.3z"/><path fill="silver" d="M494.9 248.1v-14.5l28.8-4.3v14.4l-28.8 4.4z"/><path fill="#1e1e1e" d="M529.5 254.3l-34.6-6.2 28.8-4.4 30.6 6.4-24.8 4.2z"/><path fill="#646464" d="M554.3 250.1v-14.7l-30.6-6.1v14.4l30.6 6.4z"/><path fill="#ffc600" d="M429.9 168.7V163l46-7.8v6.2l-46 7.3z"/><path fill="#ff2b50" d="M429.9 163l17.3-56.5 4.3-.7 24.4 49.4-46 7.8z"/><path fill="#98113d" d="M451.5 105.8L470 111l23.1 48.4-17.2-4.2-24.4-49.4z"/><path fill="#e57917" d="M475.9 155.2l17.2 4.2v5.8l-17.2-3.8v-6.2z"/><path fill="#98113d" d="M338.5 224.4v-24.2l-14-3.4v5.6l-8.2-1.5v-6.1l-13.7-3.2v26.9l35.9 5.9z"/><path fill="#1e1e1e" d="M288.1 200.9v-3.2l-11.2-2.5v7.2l11.2-1.5zm36.4 1.5v-5.6l-8.2 1.8v2.3l8.2 1.5z"/><path fill="#ff2b50" d="M302.6 191.6l-14.5 2v7.3l-11.2 1.5v-7.2l-12.5 1.8v26l38.2-4.5v-26.9z"/><path fill="#a4a4a4" d="M302.6 303.1l35.9 2.6V252l-35.9-4.9v56z"/><path fill="#dadada" d="M264.4 252v53.7l38.2-2.6v-56l-38.2 4.9z"/><path fill="#ffc402" d="M264.4 122.7V197l8.7-1.2V121l-8.7 1.7z"/><path fill="#ff8c19" d="M337.8 122.7l-10-2.1v77l10 2.4v-77.3z"/><path fill="#ffc402" d="M327.8 120.6l-7.4 2.6v74.5l4.1-.9 3.3.8v-77zm-36.8-3.1v75.7l11.6-1.6v-76.3l-11.6 2.2z"/><path fill="#ff8c19" d="M273.1 121v74.8l3.8-.6 4.4 1 .2-71.7-8.4-3.5zm29.5-5.7v76.3l10.1 2.4v-76.6l-10.1-2.1z"/><path fill="#1e1e1e" d="M312.7 117.4v6.6l7.5 1.6.2-2.4 7.4-2.6-15.1-3.2zm-21.7.1l-10.4 2 10.4 2.3v-4.3z"/><path fill="silver" d="M302.6 83.8v31.5l18 3.8v-30l-18-5.3z"/><path fill="#646464" d="M337.8 94.1l-17.2-5v30l17.2 3.6V94.1z"/><path fill="#dadada" d="M302.6 83.8l-22 4.5v31.2l22-4.2V83.8z"/><path fill="#1e1e1e" d="M288.2 239a8.3 8.3 0 00-5.7-2.4c-5.4 0-9.8 5.9-9.8 13v1.3l11.3-1.4a14.7 14.7 0 014.2-10.5z"/><path fill="url(#E)" d="M264.4 223v29l8.3-1v-1.3c0-7.2 4.4-13.1 9.9-13.1a8.3 8.3 0 015.6 2.4 14.4 14.4 0 014.1 9.4l5.3-.7 5-.6v-28.6z"/><path fill="#1e1e1e" d="M320.6 237a8.5 8.5 0 00-5.2 1.8 13.4 13.4 0 015 10.7l10.1 1.4v-1.3c0-7-4.4-12.6-10-12.6z"/><path fill="#ba3dfe" d="M302.6 218.5v28.6l3.7.5 4.3.6a13.1 13.1 0 014.8-9.4 8.5 8.5 0 015.2-1.8c5.5 0 10 5.6 10 12.6l-.1 1.4 8 1v-27.6z"/><path fill="#ff2b50" d="M302.6 256.9l-59 7.8v24.7l59-5.5v-27z"/><path fill="#98113d" d="M302.6 256.9v27l18.9 2.5v-26.6l-18.9-2.9z"/><path fill="#ffc600" d="M243.6 289.4v29.5l59-5.1v-29.9l-59 5.5z"/><path fill="#ff8c19" d="M302.6 313.8l18.9 1.5v-28.9l-18.9-2.5v29.9z"/><path fill="url(#F)" d="M302.6 342.2v-28.4l-19.1 1.7v27.3l19.1-.6z"/><path fill="#98113d" d="M341.5 343.4v-26.6l-38.9-3v28.4l38.9 1.2z"/><path d="M354.8 322.4l38 32.2v-32.8l-38 .6zm-73.4 64.5v17.5l40.7 28v-45.5h-40.7zm40.1-121.5l45.1 42.2-45.1-3.1v-39.1zm57.7-48.5l3.5-2v-24.2l-16 2.3v-47.7l-11.2-9.2-4.8 16.4v43.2l-13 2v2.3l.8.2v77.7h4.2s5-41.6 36.5-61zm54.1 130.5h-1.2v-4.6l47.2 61.2v11.1l-20.7-.2-25.3-44.3v-23.2zm-44.5-247.3l21.7 19 15.1 2.7-14.4 36.5v-8.2l-22.4-50zm91.5 129.2l.9 1.6 18.9 33.8 29.4 4.1v-14.5l-34.6-6.2 12.7-1.9 16.1-16.9-28.8 4.3M448 268.8l25.6 17.8 19.5 42.4v-50.9l2.8-.2v-14.4l-47.9 5.3zm62.2 69.4h8.9l7.9 35-1.8 8.5-26.2.3 11.2-43.8z" opacity=".3"/><path d="M525.2 381.7v7.6h-2.4v5l-7.4 4.9V423a16.2 16.2 0 01-16.3 16.2l-9.3-.2 1.2 35.9-39-1.6.9-58.4 26.4.2 18.1-2.1h3.1v-23.6H499V382z" opacity=".3"/><path d="M474.9 474.2v6.6l48.2 22v-26.5l-48.2-2.1zm-120.1 48.9l38 20.9 30.1 2.2v-42.6l-7.7 1.2-20.1-1.3-2.3-.4v13l-16.7 2.2-21.3-.7v5.5zM243.7 521v3.7l15.6 7.4 7.8.7 16.4 9.3v-7.8l21 1.8V521l-9.9 1.4-19.5-1.3-11.5 2-19.9-2.1zm19.9-181.8l22.7 14.2 11.5 33.5h-16.4l-17.8-47.7z" opacity=".3"/><path fill="#dadada" d="M191.8 380.1l7.2-.2-7.2.2zm-82.2 1.4l36 223.4 8.3-1.4-37.5-222.1-6.8.1z"/><path fill="url(#c)" d="M104.9 381.6l34.4 222.5 6.3.8-36-223.4-4.7.1z"/><path fill="url(#G)" d="M199 379.9l-7.2.2 40.3 235.7 9.3 1.2L199 379.9z"/><path fill="#dadada" d="M248.3 615.6l-39.6-235.7H199L241.4 617l6.9-1.4z"/><path fill="url(#H)" d="M123.8 305.9l-5.7.4L0 624.8l5.3.9 118.5-319.8z"/><path fill="#dadada" d="M137.8 309.3l-14-3.4L5.3 625.7l17.6-2.4 114.9-314z"/><path fill="url(#I)" d="M75.9 447.7l.3-2.4 131.7.3.5 2.3-132.5-.2z"/><path fill="url(#J)" d="M52.4 507.7v2.4l87.9 2.1.7-2.2-88.6-2.3z"/><path fill="url(#K)" d="M120.2 302.2l-2.1 4 5.7-.3 46.5-3.1a20.7 20.7 0 0121.2 26.8L95.7 640l8.7 1.4 91.3-311.7a24.4 24.4 0 00-25-31.1z"/><path fill="#dadada" d="M170.7 298.7a24.4 24.4 0 0125 31.1l-91.3 311.7 17.9-3 88-305a28 28 0 00-28.7-35.6z"/><path fill="#e9e9e9" d="M116.3 573.5l-72.9-6.2H29.7l86.1 7.6.5-1.4z"/><path fill="#dadada" d="M29.7 567.3v2.5l85.4 7.4.7-2.3-86.1-7.6z"/><path d="M123.8 305.9l9.5 15.7 4.5-12.3-14-3.4zM75.9 447.7l8.9 6.4 2.3-6.3-11.2-.1zm-23.5 62.4l11.8.3-2.8 7.5-9-7.8z" opacity=".1"/><path fill="#1e1e1e" d="M642.7 557.7a193 193 0 00-6.6-10.4h-4.2v16.8s2.8 4 5.9 5.6c7 .6 6.3-9.3 5-12z"/><path fill="#98113d" d="M644.5 557.3l-7-10H636a193 193 0 016.6 10.4c1.4 2.7 2 12.6-5 12a4.4 4.4 0 003.3.5c4-1.3 5.3-10.5 3.5-13z"/><path d="M29.7 569.8l10 7.4 2.4-6.3-12.4-1.1zM199 379.9l-2.1.2-3.2 11.4 3.2 18.2 3.8-20.2-1.7-9.6z" opacity=".1"/><path fill="#a4a4a4" d="M361.3 644c-6.6 0-10.4-2.3-11.9-3.6v2.7c0 .6 4.6 5.1 16.8 3.6 5-.7 10.4-1.2 15.2-1.6l-.2-3.3a138.7 138.7 0 01-20 2.2z"/><path fill="#1e1e1e" d="M391.1 629.9l-19.6-3.4-20.2-.5s-1.8.6-1.9 1.5v13c1.5 1.3 5.3 3.7 11.9 3.6a138.7 138.7 0 0019.9-2.2l.3 3.3c7.2-.7 12.9-1 12.9-1z"/><path fill="#d0d0d0" d="M351.3 619.6v7.5s3 3.7 12.6 3.7c8.2 0 7.6-4.3 7.6-4.3v-8z"/><path fill="#1e1e1e" d="M417 643.3c1.7-.4 2.3-2 2.4-3.5a5.5 5.5 0 00-4.4-5.4l-20.6-4-20.2-.4s-1.7.5-1.8 1.4v13.2c1.2 1 4.8 3.5 11.3 3.6 8 0 30.3-4.3 33.4-5z"/><path fill="#a4a4a4" d="M417 643.3c-3 .6-25.3 5-33.4 4.8a18 18 0 01-11.3-3.6v2.5c0 .6 4.6 5.2 16.9 3.6 8.7-1 19.3-3.3 24.6-4.4a7.4 7.4 0 005-3.9 5.4 5.4 0 00.6-2.5c-.1 1.4-.7 3.1-2.3 3.5z"/><path fill="#d0d0d0" d="M374.2 620.4v10.4s2.7 3.8 11.3 3.8c7.6 0 7.6-4.5 7.6-6.2v-9z"/><path fill="#843c32" d="M388.6 313.4c1.1 1.9 3.6 3.7 5.1 4.8s-.2 3-2 2-3-6.8-3-6.8z"/><path d="M388.1 313.4c1.2 1.9 4.1 3.7 5.6 4.8s-.7 3-2.5 2" opacity=".3"/><path fill="#843c32" d="M404.4 360.3s19.2-27.4 21.2-30 8.7-8.7 13-8.6 5 2.7 2.4 3-4.2.8-4.2.8l-4.7 13v8L412.8 404a5.7 5.7 0 01-8.1 3L383 395.3zm-39.9-10.9v-15l-5.8-21.7 21.7-9.6 2.6 1s10.4 17 12.6 21.3 2.6 13.3-8.5 14.8V352z"/><path d="M384 330.5s3.1 5 3.1 9.7c7.2-1 9.6-5.1 9.7-9-.6 4.8-12.8-.7-12.8-.7z" opacity=".3"/><path fill="#1e1e1e" d="M352.6 325.6l7 11.5a6.6 6.6 0 008.3 2.6l6.7-3a3.8 3.8 0 002-4.5L372 316l4.3 1.6s3.7.8 4.8-.3-4-6.5-4-6.5 8.3-3 8.7-2.3l1 1.8s2.6-4.6-1.3-7.6c0 0 7.3-5-.5-7.5s-20-4-31.7 6.4c-11 9.8-1.6 22.5-.6 24z"/><path fill="#ff2b50" d="M343.8 456.1s-.8 110.9 4.7 162.2c0 0 3.7 9.5 23.2 4l4.3-3.9-1.5-160z"/><path d="M358.8 479.8a16.1 16.1 0 01-7.1 3.5c-.5 0 4.7 3 4.7 3.4v1.3c.4 29.7 1.8 116 4.5 136 0 0 11-.3 13.3-3.6 2.7-3.8 12.7-158-15.4-140.6z" opacity=".1"/><path fill="#ff2b50" d="M351.7 483.3l13 4s2.7 112.5 6.1 135c0 0 3.4 4.2 15.4 4.2 9 0 10.6-5.2 10.6-5.2s6.4-100.4 6.4-125.5v-40.5h-44"/><path d="M343.8 456.1v.8s23.3 16 59.4 9.8v-11.4h-59.4z" opacity=".3"/><path fill="#843c32" d="M379.6 319.5s-6-6.8-9.2-4.8.7 8.3 5 10.3 5-1.6 5-1.6"/><path fill="#ff2b50" d="M363.3 353.6V350a1.9 1.9 0 01.6-1.4 20.3 20.3 0 0112.7-4.7 42.5 42.5 0 0111.1 1 1.8 1.8 0 011.4 1.8v5.2z"/><path fill="#843c32" d="M496.8 373.7l-1.6.3 2-3.3a1 1 0 00-1.5-1.3l-4.6 3.8s1.1-2.6 2-4-.3-2.8-1.5-2-9 8.4-9 8.4.2-3.7-.6-4c-1.4-.3-3 2.9-3.6 5s-3 8-3 8L453 396.3s-9.7-9.7-21.6-20.4c3.8 3.5-2.6 21.2-9.7 29l25 11.9a13.4 13.4 0 0015-2.4c9.4-9 25.9-24.8 28.8-27.4 4-3.6 7-11.5 7-11.5v-1a.7.7 0 00-.8-.7z"/><path fill="#dadada" d="M432.7 374.2c-13.2-11.8-29-24.6-37.4-26.5-16-3.5-36-3.3-45.5 23s-7.4 85.6-7.4 85.6c40.9 12.5 66.3 0 66.3 0l.1-57 11.7 6 2.5-2.2c7.1-7.7 13.5-25.5 9.7-28.9z"/><path fill="none" stroke="#1e1e1e" stroke-linecap="round" stroke-miterlimit="10" d="M453 396.2l2.4 2.6"/><path d="M408.9 399.3l-8.3-4.4 8.2 14.4.1-10z" opacity=".3"/><path fill="none" stroke="#1e1e1e" stroke-linecap="round" stroke-miterlimit="10" d="M408.9 399.3l-8.3-4.4m90.5-21.7l-3.3 4.2m7.4-3.4l-4.8 5.7"/><path fill="#e57917" d="M243.3 88.6s4-10.6 4.3-12.7 1-3.3 1.6-3.3c1.2 0 1.7 1.8 2.2 5.6.5 4.3-4.3 10.1-4.3 10.1z"/><path d="M270.2 79.4l.4 2.2a9 9 0 01-3.6 3.5 70 70 0 00-6 22.2l-5.2 1-2.9-18.4 13.4-8.7z" opacity=".3"/><path fill="#ff8538" d="M236 102.7s5.2-9.5 6.8-13 5.2-10.7 7-11.9 11.4-3.4 14.6-3.6 9 .3 9.2 1.4-1.3 1.7-2.4 1.8c0 0 1 1.3-1.7 2.4 0 0 1.2 2.6-2.8 3.8a16.8 16.8 0 00-9 7.1c-1.7 2.8-7.9 16.5-7.9 16.5z"/><path fill="url(#d)" d="M149.2 233L133 249.6l7.1 25.1-8 12.2s-14.7-19.6-20.2-34.9a8.9 8.9 0 011.4-8.4c7.2-9.3 26.4-34 34.5-43.9 10-12.4 1.4 33.5 1.4 33.5z"/><path d="M147.8 199.6l-8.9 11-.3 3.2a81.5 81.5 0 001 24.5l.7 3.7 8.9-9s8.6-45.8-1.4-33.4z" opacity=".3"/><path fill="#98113d" d="M237 100.7v-1s1.9-4.5 3.3-5.5 6-1.8 10.3.9c4.9 3 3.4 5.9 1.6 9.3s-15.2-3.7-15.2-3.7z"/><path fill="url(#L)" d="M141 259.5c4.8-9 7.5-29 12.9-46.5 0 0 26.8-9 35.6-25s43-82.4 47.5-89c4-5.8 18.9-2.8 15.3 5.6s-30.2 62.2-39.6 87.8-16.5 63.9-20.3 79.3-49-5.8-49-5.8z"/><path fill="#1e1e1e" d="M190.3 186.7s23.7 50.5-13 59c-24.7 5.7-28-13-27.4-26 0 0-5.8-8.2-4.3-16.5s11.7-19.8 8.9-27.7-6-21 4.2-29.8a21.7 21.7 0 0121-4.5s8.7-5.4 13.3 3.1-.9 12.1-.9 12.1l1.2 8.8a10.4 10.4 0 004.5 7.3z"/><path fill="#ff8538" d="M192.3 169.5a10.9 10.9 0 01-4.2-2.8c-3.5-.4-8-6.7-4.9-8.5s7.3 5.5 7.3 5.5c2.2-1.1 1.4-2.3.7-3.2s-6.6-7.2-3.4-9.8 6.5 2.8 6.5 2.8l1.8 6a24 24 0 013 10.4l-1.5 3-1.8-1.5a11.3 11.3 0 00-3.5-2z"/><path fill="#1e1e1e" d="M143.8 285.2c1.6 5.6 8.4 12.7 8.4 12.7L144 348s-15.3 70.7-15.5 72 4.7 3.3 12.5 4.3a75.7 75.7 0 0011.4.7 2 2 0 002-1.4c2.2-7.8 13.6-46.7 21.8-76 9-32.8 16.4-72.8 16.2-76s-8.8-10.7-23.3-13.8-28 1.7-28 1.7a66 66 0 00-8.6 13.6c-4.4 10.2-7.2 22.8-11 31.5-6.6 14.8-12.3 32.6-12.3 32.6S74 366.2 68 371.6a3.7 3.7 0 00-1.2 2 29.5 29.5 0 00.3 12.8c1.7 6 6.5 10.7 9.3 10s49.9-36.8 56.4-41.5 37-68 37-68"/><ellipse cx="73.4" cy="383.6" fill="#ba3dfe" opacity=".3" rx="5.2" ry="11.6" transform="rotate(-13.54 73.379 383.555)"/><path fill="#f5f5f5" d="M78.4 382.4a19.5 19.5 0 00-4-8.3l-6.7 3.8-6.3 3.6 3.7 16.7 7.7-4.6L79 390a21.7 21.7 0 00-.6-7.5z"/><path d="M78.4 382.4a19.5 19.5 0 00-4-8.3l-5.1 3c2.2 1.1 8 5.1 7.2 14.4l2.5-1.6a21.7 21.7 0 00-.6-7.5z" opacity=".3"/><path fill="#1e1e1e" d="M56.9 401.4c1.9-5.6 3.1-16.3-.5-17.8a5.9 5.9 0 00-6.1 1c-1 .8-1 2-1.4 3.5-1.4 6.4-4.2 19-6 25.2-1.8 5.9-2.5 12.4.6 15l.4.3h.1c5.6 3.3 11-21.9 12.9-27.2z"/><path fill="#ff2b50" d="M72.3 385.6c-.6-8-6.9-9.2-10.1-7.9-2.5 1-8 3.3-11 5.4 1.4-.9 6.4-3.4 9 .5s.7 12.5 0 15.4-4.2 13.9-5.5 17.4-4 13.6-8.8 13a8.2 8.2 0 001.3.1c7.1.2 11.3-13.4 17.5-22.4s8.1-13.5 7.6-21.5z"/><path fill="#98113d" d="M54.7 416.4c1.3-3.5 4.7-14.4 5.5-17.4s2.5-11.6 0-15.5-7.6-1.3-9-.5c-.8.7-1.5 1.3-1.6 1.9L49 388c.4-1.4.5-2.6 1.4-3.5a5.9 5.9 0 016.1-1c3.6 1.5 2.4 12.3.5 17.8-1.9 5.4-7.3 30.6-12.9 27.4a5.4 5.4 0 001.9.7c4.9.6 7.5-9.6 8.8-13z"/><path fill="#ba3dfe" d="M152.9 423.7c-.1.8-5.4.8-11.7-.1s-11.7-2.5-11.6-3.4 5.7-.6 12 .3 11.4 2.3 11.3 3.2z" opacity=".3"/><path fill="#f5f5f5" d="M141.6 420.5c-2.6-.4-5-.6-7-.7l-.5 2.4-1.7 6.9 17 .3 1.1-5.1.4-1.8a56.1 56.1 0 00-9.3-2z"/><path d="M141.6 420.5c-2.6-.4-5-.6-7-.7l-.5 2.4-.4 1.3a81.9 81.9 0 0117 .2l.2-1.2a56.1 56.1 0 00-9.3-2z" opacity=".3"/><g clip-path="url(#M)"><path fill="#ff2b50" d="M172.5 442.3a10.2 10.2 0 00-4.5-4.4c-3.1-1.8-15.1-11.4-15.7-11.7s-5.2-.3-8.8-.3-12.6-.4-13 .6c-.4.6-1.9 10.8-2.6 15.8h44.6z"/><path fill="#98113d" d="M128 442.3l-.3 1.5a1 1 0 001 1.2H172a1 1 0 001-1 5.5 5.5 0 00-.5-1.7H128z"/></g><path fill="none" stroke="#c836d7" stroke-linecap="round" stroke-miterlimit="10" d="M143.8 285.2c1.6 5.6 8.4 12.7 8.4 12.7l-6 36.4"/><path fill="none" stroke="#1e1e1e" stroke-linecap="round" stroke-miterlimit="10" d="M258.2 81.6a52 52 0 0110.7-2.3.5.5 0 01.6.4M258 78.3s7-1.5 12.2-2a1 1 0 011 .6h0"/><path fill="#646464" d="M593 521.4l-.9 6.2-24.4 33.3a13.2 13.2 0 001 16.7 13.2 13.2 0 0013 3.8l53.3-14.1-14-45.9z"/><path d="M616 550.3c-.2 0-.3-.1-23.6 16.4l27.6-6.5z" opacity=".3"/><path fill="#1e1e1e" d="M643.1 569.4a67.5 67.5 0 01-3.9-6.7c-1.3-3.2-13.5 7.9-13.5 7.9l1.3 6.7-.7 3.1c2.8-2.2 12.1-1.2 14.3 5.4 1.3-1.5 2-3.7 2.1-7.3.3-7.4 1-8 .4-9.1z"/><path fill="#d0d0d0" d="M626.4 580.4a10 10 0 00-3.3 7c.2 2 6.5 2.5 11.6 1.4 2.6-.6 4.6-1.3 6-3-2.3-6.6-11.6-7.6-14.4-5.4z"/><path fill="#ff2b50" d="M643.1 569.4c.7 1-.1 1.7-.4 9s-3 9.3-8 10.4-11.3.5-11.6-1.5a10.4 10.4 0 00.2 2s.5 3.4 8.7 3 10.3-3.7 11.5-7.1 1-11.6 1-12.8a8.3 8.3 0 00-1.4-3z"/><path fill="url(#N)" d="M646.2 517c1.9-1.6 1-6.6-1.7-11.4s-8.7-30.6-10.4-38.4-9.2-16.3-26.4-15.3-23 4.8-35 13.3-18.2 13.4-18.2 13.4v19.8s29.1-17.3 33.4-20c0 0 2.2 11.3 3 21.1l2 21.9h52.4z"/><path fill="none" stroke="#1e1e1e" stroke-linecap="round" stroke-miterlimit="10" d="M587.9 478.3a54.4 54.4 0 00-3-8.6"/><path d="M630 480.3l-23.9 41.1h-13.2l-.8-9.2 37.9-31.9z" opacity=".3"/><path fill="url(#O)" d="M616 464.7a109.7 109.7 0 01-30.1 30c-16.9 11-28 19-30.6 21a1.9 1.9 0 00-.8 1.3 20.5 20.5 0 001.3 9.7c2.2 5.5 4 6.8 6.2 6s26.6-15.2 38.9-24.4 30.6-29.7 30.6-29.7"/><ellipse cx="558.7" cy="524.1" fill="#1e1e1e" rx="2.6" ry="8" transform="rotate(-16.22 558.861 524.207)"/><path fill="#ff8538" d="M561.2 523.4c-1.2-4.2-3.3-7.3-4.7-7a1 1 0 00-.3.1l-5.4 2.7-7.2-.7a.9.9 0 00-1 .5.9.9 0 00.5 1.2l2.9 1.5a.5.5 0 01-.1.9l-11.9 2.8a1 1 0 00-.7 1 1 1 0 001 .8l10.3-1.2.1.2-9 5.1a1 1 0 00-.3 1.6 1 1 0 001.1.3l9.6-3-6 5.4a1 1 0 000 1.5 1 1 0 001 0l7-4.2.1.1-2.4 5.4a1 1 0 00.5 1.3 1 1 0 001-.2l8.2-8.6 2.6-1.5 3.9-2.4a21.4 21.4 0 00-.8-3.6z"/><path d="M561.2 523.4c-1.2-4.2-3.3-7.3-4.7-7a1 1 0 00-.3.1l-.2.1c1 1 3.7 4.3 3.7 11.8l2.3-1.4a21.4 21.4 0 00-.8-3.6z" opacity=".1"/><path fill="#ff2b50" d="M596.2 455.3c-2.2 1.4-3.5 5-1.4 6.8s8.9 3 16-2c8.8-6.5 3-12.3-2.6-8.8a31.7 31.7 0 01-12 4z"/><path fill="#ff8538" d="M612.2 451.3l-.7-8.8-.4-4.4-15.3 5.9.4 10.9v2.2c.3 5.1 8 2.7 12.7 0 2.6-1.5 3.5-3.4 3.3-5.8z"/><path d="M610 440.3l1.2-2.2-15.4 5.9.4 10.9c3.1-.5 13.7-1.4 13.8-14.6z" opacity=".3"/><path fill="none" stroke="#1e1e1e" stroke-linecap="round" stroke-miterlimit="10" d="M616 464.7a109.3 109.3 0 01-25.9 27"/><path fill="silver" d="M646.2 517s-3.7 2.2-7.6 1-31.9-12.3-39.8 3.4c-7.8 15.4 9.3 28.4 24.3 50.8a2.2 2.2 0 002.3 1l3.6-.8c6.2-1.2 9.2-5.4 10.8-7.8a3.1 3.1 0 00.2-3.2l-5.9-11.7s14-.7 17.7-10.3-5.6-22.5-5.6-22.5z"/><path d="M622.7 525l11.5 24.6c.8 0 11.7-.7 16.4-7.9-5.4 6.6-24.8-10.2-27.9-16.7z" opacity=".3"/><path fill="#ff2b50" d="M607.6 430.8v.1z"/><path fill="#ff8538" d="M593.5 441.9c1.5-.2 1.3-1.9 1.3-1.9l4.9-.7c3.7-.5 2.9-3 2.4-6l-1.4-7.9a7.2 7.2 0 01-10.3-1.5 5 5 0 01-3 4 5.4 5.4 0 01-1.1.3c.9 4.2 2 9.2 2.5 12.4l3-.5s.2 2 1.7 1.8zm19.3-10.7c-.7-3.6-3.6-3-5.2-.4v.1c.4 3 1 9.6 2.4 9.4 0 0 3-1 3-7a10.8 10.8 0 00-.2-2z"/><path fill="#ffc402" d="M615.2 420a6 6 0 00-5.2-5 7.9 7.9 0 000-1.6 7.6 7.6 0 00-8.7-6.4 7.5 7.5 0 00-3.7 1.6 7.2 7.2 0 00-11 2.4 4.5 4.5 0 00-3.5 5 5.5 5.5 0 00-4 6.1 5.4 5.4 0 001.4 3 4.6 4.6 0 00-.1 1.8 4.3 4.3 0 006.3 3.3l-.4-2a5.4 5.4 0 001.1-.3 5 5 0 003-4 7.2 7.2 0 0010.3 1.5l1.4 7.9c.5 3 1.4 5.4-2.4 6l-4.9.7s.2 1.7-1.2 1.9-1.8-1.7-1.8-1.7l-3 .4.3 1.6c.6 4.2.9 12.1 10.9 9.8a12.5 12.5 0 0010-11.7c-1.4.2-2-6.4-2.4-9.4v-.2c1.6-2.5 4.5-3.2 5.3.5a3.6 3.6 0 00.7-6.1 6 6 0 001.6-5z"/><rect width="6.7" height="6.7" x="584.5" y="432.9" fill="url(#e)" opacity=".5" rx="3.4" transform="rotate(-8.35 587.764 436.309)"/><rect width="6.7" height="6.7" x="593.4" y="431.6" fill="url(#P)" opacity=".5" rx="3.4" transform="rotate(-8.35 596.745 434.967)"/><rect width="6.7" height="6.7" x="584.5" y="432.9" fill="none" stroke="#1e1e1e" stroke-linecap="round" stroke-miterlimit="10" rx="3.4" transform="rotate(-8.35 587.764 436.309)"/><rect width="6.7" height="6.7" x="593.4" y="431.6" fill="none" stroke="#1e1e1e" stroke-linecap="round" stroke-miterlimit="10" rx="3.4" transform="rotate(-8.35 596.745 434.967)"/><path fill="none" stroke="#1e1e1e" stroke-linecap="round" stroke-miterlimit="10" d="M591.1 435.8l2.4-.3m6.6-1l2.3-1.6"/><path fill="none" stroke="#ff8538" stroke-linecap="round" stroke-miterlimit="10" d="M603.1 432.3l4.1-2.7"/><path d="M587.3 429.3a4.8 4.8 0 001.1-.3 5 5 0 003-4 7.8 7.8 0 01-1-1 5 5 0 01-3 4 5.4 5.4 0 01-1.1.2l.2 1.1a3.5 3.5 0 00.8 0zm11.1-1.3a7.2 7.2 0 002.5-1l-.2-1.5a7.2 7.2 0 01-9-.2 7.2 7.2 0 006.7 2.6z" opacity=".3"/><path fill="#e3e3e3" d="M658.5 475.6l-4.2-6.9-1.6-2.7a62 62 0 00-11.2-13.6l-9.4-8.7 64.7-12.7 9.5 8.7a62.3 62.3 0 0111.1 13.6l1.6 2.7 4.2 6.9 13.3 26.3-67 17.4z"/><path fill="#ff2b50" d="M686.6 486.2l-7.3 1.8-8.1-19.3 7.3-1.9 8.1 19.4zm24.3-6.2l-7.3 1.9-8.1-19.4 7.3-1.8 8.1 19.3z"/><path fill="#ffc402" d="M669.2 469.2l36.8-9.3-2.8-1.8a159.3 159.3 0 00-24.8-13.4L672 442c.7 9.4.6 14.2-1.2 22.3z"/><path fill="#6343dc" d="M678.5 466.8l8.1 19.4 4.2-1.1-2.5-6c-1.2-3-.3-5.9 2-6.4s5.3 1.3 6.5 4.2l2.5 6 4.3-1-8.1-19.4z"/><path d="M718.4 464l7.1 8.3-1.1-8-6-.3zm-52.8 3.9l6.4 9.4 8.7 7.2h-13l-2.1-16.6z" opacity=".1"/><path fill="#de1250" d="M691.9 715.5l-13.2 1.2c-5.3-1.3-13.7-3.7-19.4-2.2-6.7 1.8-4.3 6.7-4.3 6.7s2.6 6.7 23.8 16.2 26.8 8 29.3 6 8.8-17.2 8.5-19.2-12.3-11-24.7-8.7z"/><path fill="#f5f5f5" d="M694.6 708.2s-3.8 10.4-3.9 11.7 3.3 7 13.1 8c4.3.3 7.6-.9 9.3-3s4-8.3 5.6-13.7c3.3-10.7-24-3-24-3z"/><path d="M694.6 708.2L693 713c2.6 3.8 9.5 12 21 10.5a79.4 79.4 0 004.7-12.2c3.3-10.7-24-3-24-3z" opacity=".3"/><rect width="10.2" height="8.8" x="749.6" y="370.7" fill="none" stroke="#1e1e1e" stroke-linecap="round" stroke-miterlimit="10" stroke-width=".5" rx="2.3"/><rect width="10.2" height="8.8" x="749.6" y="370.7" fill="none" stroke="#1e1e1e" stroke-linecap="round" stroke-miterlimit="10" rx="2.3"/><path fill="#ff8538" d="M672.2 482.5s-3.8-1.2-4-2.1-1.8-11.6-2.6-12.5-2.1.2-2.3 2.4-.5 6.1-.9 6.3-4-1-4-1l-4.1-6.9s-2.5 2.8-.5 5a5.4 5.4 0 00-1.3 5.3s-1.1 3 2.5 7 6.8 7.7 17.2 8.6 0-12.1 0-12.1z"/><path fill="#ff2b50" d="M674.5 481.3a7.9 7.9 0 00-6.1.3c-2.9 1.6-5 5.4-3.3 10.2s7.8 3.5 7.8 3.5z"/><path fill="#ff8538" d="M727.8 459.4a18.5 18.5 0 00-8-2.1l3.2 5.2-3.4-1.1a1.5 1.5 0 00-1.9 1.2 1.5 1.5 0 00.6 1.4l6.9 4.5z"/><path fill="#1e1e1e" d="M749.5 517.7l-57.6 189.9c-.6 1.8 3.2 10.5 11.8 12.5s15.2-1.5 17-3.2 33.2-81.9 43.8-106.2 16.4-33.7 16.4-33.7 18 61 22.7 68.6 50.4 64.7 53 65.7 10.3-1.4 15.7-5.8 10.4-11.5 10-13.7-45.3-60.7-45.3-60.7l-17.5-67.4s-3.8-34.7-12-41.6-58-4.4-58-4.4z"/><ellipse cx="868.4" cy="700" fill="#ba3dfe" opacity=".3" rx="14.7" ry="5" transform="rotate(-38.22 868.415 700.024)"/><path fill="#f5f5f5" d="M881.6 698.5l-2.3-3-4-5a31.2 31.2 0 00-10 5.5 32 32 0 00-7.5 8l4.3 5.3 4.7 5.8 15.5-13.8z"/><path fill="#1e1e1e" d="M879.2 695.5l-4-5a31.2 31.2 0 00-10 5.6 32 32 0 00-7.4 8l1.3 1.5c4.5-5.6 11.4-11.6 20.1-10.1z" opacity=".3"/><path fill="#de1250" d="M885.1 701.1c-4.5-6.6-6.8-8.5-15.6-2.7s-7 10.2-6.8 15.2a48.5 48.5 0 01-1 11s-1 .6-8.2 3.7-8.7 6.6-7.5 10 14.8 3.1 20.1 2.7a18.8 18.8 0 003.1-.6c5.8-1.5 14.1-5.2 15.5-5.8 1.7-.6 2-3 4-6.9a57.6 57.6 0 003.7-11.7 17.4 17.4 0 00.5-3.1c0-2.1-3.3-5.2-7.8-11.8z"/><path fill="#1e1e1e" d="M888.4 711c-3.6.4-7.3 3.4-9.5 12.3s-4.1 15.4-9.7 17.1c5.8-1.5 14.1-5.2 15.5-5.8 1.7-.6 2-3 4-6.9a57.6 57.6 0 003.7-11.7c.6-2.7-.3-5.3-4-5z" opacity=".3"/><path fill="#de1250" d="M747 514.7s-.6 12 .9 13.7 8 10.3 32 10.3 33.1-10.2 32.6-15.7-.7-12.3-.7-12.3z"/><path fill="none" stroke="#c836d7" stroke-linecap="round" stroke-miterlimit="10" d="M803.5 561.5l-19.3 8.8-3.3 6.7"/><path fill="url(#Q)" d="M765.8 406.5s-7 4.8-17.6 10.8-14.1 19-16.4 27.8-10.4 36.1-10.4 36.1-39.1-1-46.1-1-13 12.8-2.3 17.9c7 3.3 33.4 8.7 50.8 12.1a19 19 0 0021.5-12.1l.5-1.4s-.4 17.8.6 22.5 12 14.2 36.8 13 30.3-12.3 30-16.8l-.7-14.4s16.7 1.5 16.1-16.6-6-55-14-62.8-20.2-13.8-24.4-15.1-24.4 0-24.4 0z"/><path fill="none" stroke="#1e1e1e" stroke-linecap="round" stroke-miterlimit="10" d="M745.8 496.7l13.4-40.6m48.2-17.2l5.1 62.2"/><path fill="#ff8538" d="M767.9 405.8v-6.2s-13.4 3.8-13.8-9.6-.5-29.9-.5-29.9H786l1 41.7v7l-17.6 2.7z"/><path d="M767.9 391.4s-6.4 10.4-11 6.3c4 3.9 11 1.9 11 1.9z" opacity=".3"/><path fill="#1e1e1e" d="M758.9 365a17.4 17.4 0 01-7.2-2c-2.9-1.8-1.7-6.3 0-8 0 0-7.7-1.3-4.4-7.4s31.6-10 42-.8 6 22.7 3.9 28.5-5 8-5.8 11.5.9 8.1-5.2 8.3-11.1.6-11.8-5.4c-.7-5.7-3.3-8-3.3-8s5.4-6.5 2-9.7-7.1 3.4-7.3 10.4c0 0-2.6.6-2.6-.2l-.3-17.2z"/><path fill="#de1250" d="M778.3 413.5c-10.7 0-14.8-2.5-14.8-6.3s4.4-5.1 4.4-5.1v2.2s3.3 2.5 9.4 2.1a16.9 16.9 0 009.7-3.7v-2.3s4.3 1 4.2 5.3-5.7 7.8-12.9 7.8z"/><path fill="none" stroke="#1e1e1e" stroke-linecap="round" stroke-miterlimit="10" d="M754.6 387.4a3 3 0 002.3-1.2"/><rect width="5.5" height="2.6" x="591.6" y="443.4" fill="#ff8538" rx="1.3" transform="rotate(-8.35 594.381 444.71)"/><path fill="none" stroke="#1e1e1e" stroke-linecap="round" stroke-miterlimit="10" d="M721.4 481.2l-1.3 5"/></svg>