<svg xmlns="http://www.w3.org/2000/svg" width="80" height="27"><path d="M9.956 4.753h5.9v-3.9H0v3.9h5.9v15.6h4.058v-15.6zm6.143 2.31v8.34a6.212 6.212 0 00.306 1.969 5.3 5.3 0 00.9 1.66 4.041 4.041 0 001.545 1.161 5.293 5.293 0 002.17.425 4.28 4.28 0 003.74-1.92h.037v1.655h3.862V7.063h-3.911v7.4a2.731 2.731 0 01-.613 1.83 2.214 2.214 0 01-1.79.723 2.151 2.151 0 01-1.754-.693 2.819 2.819 0 01-.576-1.86v-7.4zm23.405-.146a4.167 4.167 0 00-2.029.5 3.453 3.453 0 00-1.441 1.58h-.037V7.063h-3.715v13.29h3.838V14.53a4.061 4.061 0 01.87-2.79 2.95 2.95 0 012.317-.979 6.858 6.858 0 011.25.1v-3.8a4.185 4.185 0 00-1.054-.134zm5.333-2.091a2.4 2.4 0 001.747-.7 2.392 2.392 0 000-3.416 2.4 2.4 0 00-1.747-.705 2.413 2.413 0 000 4.826zm2 2.237v13.29h-3.923V7.063zm16.182 13.29v-8.267a6.682 6.682 0 00-.288-1.988 5.359 5.359 0 00-.858-1.678 3.944 3.944 0 00-1.521-1.185 5.173 5.173 0 00-2.188-.438 4.23 4.23 0 00-.68.067 8.357 8.357 0 00-1 .249 3.758 3.758 0 00-1.177.62 3.509 3.509 0 00-.932 1.058h-.037V7.063h-3.874v13.29h3.9v-7.379a2.767 2.767 0 01.619-1.836 2.208 2.208 0 011.8-.742 2.134 2.134 0 011.747.705 2.846 2.846 0 01.582 1.872v7.38zM76.138 7.065v1.6h-.049a4.886 4.886 0 00-1.073-.96 4.461 4.461 0 00-1.171-.559 7.37 7.37 0 00-.993-.231 5.637 5.637 0 00-.809-.061 6.037 6.037 0 00-4.628 2.128 7.41 7.41 0 00-1.257 2.17 7.023 7.023 0 00-.453 2.486 7.19 7.19 0 00.8 3.392 6.1 6.1 0 002.293 2.431 6.4 6.4 0 003.378.9 4.6 4.6 0 003.862-1.775h.049v1.52a4 4 0 01-.294 1.586 2.81 2.81 0 01-.8 1.1 3.532 3.532 0 01-1.147.62 4.408 4.408 0 01-1.361.207 3.055 3.055 0 01-2.1-.711 3.022 3.022 0 01-1-1.732l-3.617 1.033a4.829 4.829 0 00.724 1.781 6.381 6.381 0 003.488 2.607 8.577 8.577 0 002.667.4 8.853 8.853 0 002.943-.468 6.727 6.727 0 002.323-1.362 5.99 5.99 0 001.539-2.3 8.724 8.724 0 00.552-3.2V7.063zm-.883 8.972a3.359 3.359 0 01-4.647.006 3.526 3.526 0 01.012-4.79 3.336 3.336 0 014.641-.006 3.519 3.519 0 01-.006 4.79z" fill="#fff" fill-rule="evenodd"/></svg>